<svg width="16" height="16" viewBox="0 0 16 16" fill="none" xmlns="http://www.w3.org/2000/svg">
<path d="M6.66667 5.33334V10.6667M13.25 4.18001C13.4791 4.31032 13.6694 4.49933 13.8012 4.72758C13.933 4.95584 14.0016 5.2151 14 5.47868V10.3347C14 10.874 13.7047 11.3713 13.228 11.6333L8.728 14.48C8.5049 14.6025 8.25451 14.6667 8 14.6667C7.74549 14.6667 7.4951 14.6025 7.272 14.48L2.772 11.6333C2.53878 11.5059 2.34408 11.3181 2.20827 11.0897C2.07247 10.8612 2.00053 10.6005 2 10.3347V5.47801C2 4.93868 2.29533 4.44201 2.772 4.18001L7.272 1.52668C7.50169 1.40004 7.75971 1.33362 8.022 1.33362C8.28429 1.33362 8.54231 1.40004 8.772 1.52668L13.272 4.18001H13.25Z" stroke="#0EA5E9" stroke-width="1.33333" stroke-linecap="round" stroke-linejoin="round"/>
<path d="M9.33335 5.33337L7.66669 8.00004M7.66669 8.00004L9.33335 10.6667M7.66669 8.00004H6.66669" stroke="#0EA5E9" stroke-width="1.33333" stroke-linecap="round" stroke-linejoin="round"/>
</svg>
